<?xml version="1.0" encoding="utf-8"?>
<!-- Generator: Adobe Illustrator 14.0.0, SVG Export Plug-In . SVG Version: 6.00 Build 43363)  -->
<!DOCTYPE svg PUBLIC "-//W3C//DTD SVG 1.1//EN" "http://www.w3.org/Graphics/SVG/1.1/DTD/svg11.dtd">
<svg version="1.1" id="Calque_1" xmlns="http://www.w3.org/2000/svg" xmlns:xlink="http://www.w3.org/1999/xlink" x="0px" y="0px"
	 width="595px" height="513px" viewBox="0 176.5 595 513" enable-background="new 0 176.5 595 513" xml:space="preserve">
<path fill="#C1C1C1" d="M496.949,314.704l-23.089-134.732L2.099,262.83l69.165,394.001l46.776-7.896v33.883h478.958V314.704H496.949
	z M118.141,609.255l-15.093,2.898l-56.172-317.64l395.501-69.865l15.892,90.055H118.141V609.255z M558.218,643.838H157.021V353.584
	h401.197V643.838z"/>
<path fill="#C9C9C9" d="M182.907,379.471v215.392l81.359-53.973l50.374,31.684l122.438-134.731l15.892,6.496l79.261,91.454V379.471
	H182.907L182.907,379.471z M260.668,472.424c-18.69,0-34.582-15.892-34.582-34.582c0-18.691,15.892-34.583,34.582-34.583
	c18.691,0,34.583,15.892,34.583,34.583C295.251,456.532,279.459,472.424,260.668,472.424z"/>
</svg>
